<svg xmlns="http://www.w3.org/2000/svg" viewBox="0 0 96 96" width="96" height="96" role="img" aria-label="Illustrated avatar">
  <defs><clipPath id="clip-maya-feldman"><circle cx="48" cy="48" r="48"/></clipPath></defs>
  <g clip-path="url(#clip-maya-feldman)">
    <rect width="96" height="96" fill="#e8effb"/>
    <rect x="25" y="24" width="46" height="58" rx="23" fill="#3b2a24"/>
    <ellipse cx="48" cy="106" rx="35" ry="32" fill="#2f4a7a"/>
    <path d="M34 84c4-6 8-9 14-9s10 3 14 9z" fill="#2f4a7a" opacity="0.55"/>
    <rect x="41" y="57" width="14" height="18" rx="7" fill="#dcb08c"/>
    <ellipse cx="48" cy="45" rx="19" ry="21" fill="#f0c9a8"/>
    <ellipse cx="41" cy="45" rx="1.7" ry="2.3" fill="#2b2320"/>
    <ellipse cx="55" cy="45" rx="1.7" ry="2.3" fill="#2b2320"/>
    <path d="M44 53c2 2 6 2 8 0" stroke="#2b2320" stroke-width="1.6" fill="none" stroke-linecap="round"/>
    <path d="M28 43c1-13 9-21 20-21s19 8 20 21c-5-8-11-11-20-11s-15 3-20 11Z" fill="#3b2a24"/>
  </g>
</svg>
