<svg xmlns="http://www.w3.org/2000/svg" viewBox="0 0 96 96" width="96" height="96" role="img" aria-label="Illustrated avatar">
  <defs><clipPath id="clip-noa-shapira"><circle cx="48" cy="48" r="48"/></clipPath></defs>
  <g clip-path="url(#clip-noa-shapira)">
    <rect width="96" height="96" fill="#f3eafb"/>
    <circle cx="48" cy="18" r="8" fill="#6b3a1f"/><rect x="28" y="26" width="40" height="42" rx="20" fill="#6b3a1f"/>
    <ellipse cx="48" cy="106" rx="35" ry="32" fill="#5b3f86"/>
    <path d="M34 84c4-6 8-9 14-9s10 3 14 9z" fill="#5b3f86" opacity="0.55"/>
    <rect x="41" y="57" width="14" height="18" rx="7" fill="#e3ba96"/>
    <ellipse cx="48" cy="45" rx="19" ry="21" fill="#f5d3b3"/>
    <ellipse cx="41" cy="45" rx="1.7" ry="2.3" fill="#2b2320"/>
    <ellipse cx="55" cy="45" rx="1.7" ry="2.3" fill="#2b2320"/>
    <path d="M44 53c2 2 6 2 8 0" stroke="#2b2320" stroke-width="1.6" fill="none" stroke-linecap="round"/>
    <path d="M29 42c1-12 9-20 19-20s18 8 19 20c-5-7-11-10-19-10s-14 3-19 10Z" fill="#6b3a1f"/>
  </g>
</svg>
